<?xml version="1.0" encoding="UTF-8" standalone="no"?>
<svg
   xmlns:dc="http://purl.org/dc/elements/1.1/"
   xmlns:cc="http://creativecommons.org/ns#"
   xmlns:rdf="http://www.w3.org/1999/02/22-rdf-syntax-ns#"
   xmlns:svg="http://www.w3.org/2000/svg"
   xmlns="http://www.w3.org/2000/svg"
   id="svg8"
   version="1.1"
   viewBox="0 0 210 297"
   height="297mm"
   width="210mm">
  <defs
     id="defs2" />
  <metadata
     id="metadata5">
    <rdf:RDF>
      <cc:Work
         rdf:about="">
        <dc:format>image/svg+xml</dc:format>
        <dc:type
           rdf:resource="http://purl.org/dc/dcmitype/StillImage" />
        <dc:title></dc:title>
      </cc:Work>
    </rdf:RDF>
  </metadata>
  <g
     id="layer1">
    <g
       transform="matrix(10.358852,0,0,10.358852,1089.1389,-887.3027)"
       style="font-style:normal;font-weight:normal;font-size:10.5833px;line-height:1.25;font-family:sans-serif;fill:#59c8ee;fill-opacity:1;stroke:none;stroke-width:0.264583"
       id="text12"
       aria-label="{ }">
      <path
         id="path842"
         style="fill:#59c8ee;fill-opacity:1;stroke-width:0.264583"
         d="m -113.27401,93.208045 v 0.744139 h -0.32039 q -1.28674,0 -1.72599,-0.382405 -0.43408,-0.382404 -0.43408,-1.52445 v -1.235062 q 0,-0.780312 -0.27905,-1.080034 -0.27906,-0.299723 -1.01286,-0.299723 h -0.31522 v -0.73897 h 0.31522 q 0.73897,0 1.01286,-0.294555 0.27905,-0.299723 0.27905,-1.069699 v -1.24023 q 0,-1.142046 0.43408,-1.519283 0.43925,-0.382404 1.72599,-0.382404 h 0.32039 v 0.738971 h -0.3514 q -0.72864,0 -0.95084,0.227375 -0.22221,0.227376 -0.22221,0.956011 v 1.281572 q 0,0.811317 -0.23771,1.178219 -0.23255,0.366901 -0.80098,0.496092 0.5736,0.139526 0.80615,0.506427 0.23254,0.366902 0.23254,1.173051 v 1.281572 q 0,0.728635 0.22221,0.956011 0.2222,0.227375 0.95084,0.227375 z" />
      <path
         id="path844"
         style="fill:#59c8ee;fill-opacity:1;stroke-width:0.264583"
         d="m -107.25373,93.208045 h 0.36174 q 0.72346,0 0.94051,-0.222208 0.2222,-0.222208 0.2222,-0.961178 v -1.281572 q 0,-0.806149 0.23255,-1.173051 0.23254,-0.366901 0.80615,-0.506427 -0.57361,-0.129191 -0.80615,-0.496092 -0.23255,-0.366902 -0.23255,-1.178219 v -1.281572 q 0,-0.733803 -0.2222,-0.956011 -0.21705,-0.227375 -0.94051,-0.227375 h -0.36174 v -0.738971 h 0.32556 q 1.28674,0 1.71566,0.382404 0.43408,0.377237 0.43408,1.519283 v 1.24023 q 0,0.769976 0.27905,1.069699 0.27905,0.294555 1.01285,0.294555 h 0.3204 v 0.73897 h -0.3204 q -0.7338,0 -1.01285,0.299723 -0.27905,0.299722 -0.27905,1.080034 v 1.235062 q 0,1.142046 -0.43408,1.52445 -0.42892,0.382405 -1.71566,0.382405 h -0.32556 z" />
    </g>
    <path
       d="M -22.198444,35.347586 -73.549861,1.6744899 V 35.347586 69.020705 Z"
       style="fill:#59c8ee;fill-opacity:1;stroke:none;stroke-width:1.66673px;stroke-linecap:butt;stroke-linejoin:miter;stroke-opacity:1"
       id="path14" />
    <text
       id="text849"
       y="94.435425"
       x="-32.540352"
       style="font-style:normal;font-weight:normal;font-size:3.95523px;line-height:1.25;font-family:sans-serif;fill:#59c8ee;fill-opacity:1;stroke:none;stroke-width:0.098881;"
       xml:space="preserve"><tspan
         style="stroke-width:0.098881;fill:#59c8ee;fill-opacity:1;"
         y="94.435425"
         x="-32.540352"
         id="tspan847">generic logo inc</tspan></text>
  </g>
</svg>
